<?xml version="1.0" encoding="UTF-8"?>
<svg id="Layer_1" data-name="Layer 1" xmlns="http://www.w3.org/2000/svg" xmlns:xlink="http://www.w3.org/1999/xlink" viewBox="0 0 693.81 173.4">
  <defs>
    <filter id="drop-shadow-1" filterUnits="userSpaceOnUse">
      <feOffset dx="-5" dy="5"/>
      <feGaussianBlur result="blur" stdDeviation="7"/>
      <feFlood flood-color="#444" flood-opacity=".5"/>
      <feComposite in2="blur" operator="in"/>
      <feComposite in="SourceGraphic"/>
    </filter>
    <clipPath id="clippath">
      <rect x="212.2" y="43.65" width="481.62" height="86.1" fill="none" stroke-width="0"/>
    </clipPath>
  </defs>
  <g filter="url(#drop-shadow-1)">
    <g clip-path="url(#clippath)">
      <path d="M309.4,67.74c-17.6,0-31.21,13.2-31.21,31s13.41,31,31.21,31,31.42-13.41,31.42-31-13.41-31-31.42-31ZM309.61,116.97c-10.06,0-17.18-7.75-17.18-18.23s7.12-18.23,17.18-18.23,17.39,7.75,17.39,18.23-7.54,18.23-17.39,18.23ZM344.59,81.36h8.59v47.34h14.04v-59.7h-22.62v12.36ZM243.2,80.52c7.33,0,13.2,4.4,15.29,11.1h14.66c-2.72-14.25-14.45-24.09-29.96-24.09-17.39.21-31,13.41-31,31.21s13.41,31,31.21,31c15.08,0,27.02-9.64,29.75-24.09h-14.66c-2.09,6.7-7.96,11.31-15.08,11.31-10.06,0-17.18-7.75-17.18-18.23,0-10.47,6.91-18.23,16.97-18.23ZM608.76,93.09l-10.26-1.47c-4.82-.63-8.38-2.3-8.38-6.08,0-4.19,4.61-6.28,10.68-6.28,6.7,0,11.1,2.93,11.94,7.54h13.41c-1.47-11.94-10.68-19.06-24.93-19.06s-24.51,7.54-24.51,18.23c0,10.06,6.28,16.13,19.27,17.81l10.26,1.47c5.03.63,7.75,2.72,7.75,6.28,0,4.82-4.82,6.7-11.52,6.7-8.17,0-12.78-3.35-13.62-8.38h-13.62c1.26,11.73,10.47,19.9,27.02,19.9,15.08,0,25.35-6.91,25.35-18.85,0-10.68-7.33-16.13-18.85-17.81ZM360.31,44.28c-5.03,0-9.01,3.77-9.01,8.8s3.77,8.8,9.01,8.8,9.01-3.77,9.01-8.8-3.98-8.8-9.01-8.8ZM564.35,89.32c0-12.99-7.96-21.58-24.51-21.58s-24.51,7.96-26.4,20.11h13.83c.63-4.82,4.4-8.59,12.36-8.59,7.12,0,10.47,3.14,10.47,6.91,0,5.03-6.28,6.28-14.25,7.12-10.68,1.26-23.88,4.82-23.88,18.64,0,10.68,7.96,17.6,20.74,17.6,10.06,0,16.13-4.19,19.27-10.68.42,5.87,4.82,9.64,11.1,9.64h8.17v-12.36h-6.91v-26.81h0ZM550.52,104.4c0,7.96-6.91,13.83-15.5,13.83-5.24,0-9.64-2.09-9.64-6.91,0-5.87,7.12-7.54,13.62-8.17,6.28-.63,9.64-1.89,11.52-4.61v5.87ZM476.78,67.74c-7.75,0-14.25,3.14-18.85,8.59v-32.68h-13.83v84.84h13.62v-7.75c4.61,5.66,11.31,9.01,19.06,9.01,16.76,0,29.33-13.2,29.33-31s-12.78-31-29.33-31ZM474.69,116.97c-10.06,0-17.18-7.75-17.18-18.23s7.33-18.23,17.39-18.23,17.18,7.75,17.18,18.23-7.33,18.23-17.39,18.23ZM410.79,67.74c-9.01,0-14.87,3.77-18.44,8.8v-7.75h-13.83v59.7h13.83v-32.47c0-9.22,5.87-15.5,14.45-15.5,7.96,0,12.99,5.66,12.99,13.83v34.15h13.83v-35.19c0-14.87-7.75-25.56-22.83-25.56ZM693.81,96.86c0-17.18-12.57-29.12-29.33-29.12-17.81,0-31,13.41-31,31,0,18.64,14.04,31,31.21,31,14.45,0,25.77-8.59,28.7-20.74h-14.45c-2.09,5.24-7.12,8.38-14.04,8.38-9.01,0-15.71-5.45-17.18-15.29h46.09v-5.24h0ZM648.56,92.25c2.3-8.38,8.38-12.36,15.71-12.36,7.96,0,13.83,4.4,15.29,12.36h-31Z" fill="#0052ff" stroke-width="0"/>
    </g>
    <path d="M86.7,0h0c47.9,0,86.7,38.8,86.7,86.7h0c0,47.9-38.8,86.7-86.7,86.7h0C38.8,173.4,0,134.6,0,86.7h0C0,38.8,38.8,0,86.7,0Z" fill="#0052ff" stroke-width="0"/>
    <path d="M86.8,117.2c-16.8,0-30.5-13.6-30.5-30.5s13.6-30.5,30.5-30.5c15.1,0,27.6,11,30,25.4h30.7c-2.6-31.3-28.8-55.9-60.8-55.9-33.7,0-61,27.3-61,61s27.3,61,61,61,58.2-24.6,60.8-55.9h-30.7c-2.4,14.4-14.9,25.4-30,25.4Z" fill="#fff" stroke-width="0"/>
  </g>
</svg>