<?xml version="1.0" encoding="UTF-8"?>
<svg id="Layer_1" data-name="Layer 1" xmlns="http://www.w3.org/2000/svg" viewBox="0 0 128 142">
  <path d="M16.14,130.94c3.84-1.82,7.51-4.03,10.83-6.68,4.26-3.4,8.02-8.04,7.09-13.8-.46-2.87-1.99-6.64-5.4-6.76s-6.12,3.31-7.74,5.86c-3.12,4.9-4.48,11.36-3.62,17.1.36,2.38,1.3,4.98,3.49,6.25,3.67,2.13,8.45-.23,10.15-3.77.52-1.1.3-2.43-.81-3.08-.98-.57-2.55-.29-3.08.81-.4.84-.94,1.65-1.83,2.03-.48.21-1.02.3-1.54.25-.18-.02-.36-.06-.54-.09-.09-.05-.18-.1-.26-.16.24.2.27.22.08.06-.13-.1-.24-.24-.34-.36.33.37.06.08,0-.04-.08-.14-.49-.97-.33-.58-.16-.4-.28-.82-.39-1.24-.06-.23-.1-.46-.15-.69-.01-.06-.11-.7-.07-.38-.55-4.34.46-9.13,2.59-12.94.5-.89,1.05-1.74,1.72-2.51.38-.43.79-.85,1.22-1.24.22-.19.39-.35.64-.5.2-.12.93-.29.56-.33-.06,0,.15.1.21.18.3.38.48.84.63,1.29.34,1.04.5,1.9.52,2.61.05,1.7-.7,3.29-1.92,4.89-1.13,1.47-2.74,2.94-4.28,4.13-2.97,2.3-6.3,4.19-9.69,5.8-1.1.52-1.38,2.09-.81,3.08.66,1.12,1.98,1.33,3.08.81h0Z" stroke-width="0"/>
  <path d="M47.14,5.8h3.23c5.24,0,9.5,4.26,9.5,9.5v49.9h-3.23c-5.24,0-9.5-4.26-9.5-9.5V5.8h0Z" transform="translate(40.77 -27.43) rotate(45)" fill="#7eb5ff" stroke-width="0"/>
  <path d="M60.14,18.8h3.23c5.24,0,9.5,4.26,9.5,9.5v49.9h-3.23c-5.24,0-9.5-4.26-9.5-9.5V18.8h0Z" transform="translate(53.77 -32.82) rotate(45)" fill="#4f7bfc" stroke-width="0"/>
  <path d="M73.14,31.8h3.23c5.24,0,9.5,4.26,9.5,9.5v49.9h-3.23c-5.24,0-9.5-4.26-9.5-9.5V31.8h0Z" transform="translate(66.77 -38.2) rotate(45)" fill="#2d50f9" stroke-width="0"/>
  <g>
    <path d="M39.53,120.64v-15.42h4.87v15.79c0,5.98,2.23,7.95,5.56,7.95s5.68-1.97,5.68-7.95v-15.79h4.69v15.42c0,9.02-4,12.55-10.37,12.55s-10.44-3.53-10.44-12.55Z" stroke-width="0"/>
    <path d="M64.87,129.17l2.84-3.34c1.97,1.87,4.6,3.13,7.16,3.13,3.09,0,4.79-1.4,4.79-3.55,0-2.26-1.77-2.98-4.27-4.04l-3.76-1.63c-2.71-1.13-5.55-3.27-5.55-7.28,0-4.38,3.86-7.75,9.23-7.75,3.21,0,6.32,1.33,8.47,3.5l-2.5,3.09c-1.75-1.49-3.61-2.36-5.96-2.36-2.6,0-4.3,1.22-4.3,3.23,0,2.16,2.09,2.96,4.37,3.89l3.71,1.55c3.27,1.36,5.55,3.43,5.55,7.41,0,4.45-3.7,8.17-9.86,8.17-3.71,0-7.29-1.46-9.9-4.02Z" stroke-width="0"/>
    <path d="M89.64,105.22h7.33c8.42,0,13.39,4.54,13.39,13.63s-4.97,13.85-13.14,13.85h-7.58v-27.47ZM96.65,128.74c5.53,0,8.7-3.14,8.7-9.9s-3.18-9.68-8.7-9.68h-2.13v19.58h2.13Z" stroke-width="0"/>
  </g>
</svg>